<svg width="1200" height="848" viewBox="0 0 1200 848" fill="none" xmlns="http://www.w3.org/2000/svg">
  <rect width="1200" height="848" rx="20" fill="#FFFFFF"/>
  <rect x="20" y="20" width="1160" height="808" rx="16" stroke="#D9A938" stroke-opacity="0.45" stroke-width="2"/>
  <rect x="60" y="60" width="1080" height="728" rx="12" fill="#F8FAFC"/>
  <circle cx="1028" cy="126" r="64" fill="#0D1B3A" fill-opacity="0.06"/>
  <rect x="120" y="120" width="240" height="26" rx="13" fill="#0D1B3A" fill-opacity="0.12"/>
  <rect x="120" y="170" width="450" height="18" rx="9" fill="#0D1B3A" fill-opacity="0.09"/>
  <rect x="120" y="200" width="400" height="18" rx="9" fill="#0D1B3A" fill-opacity="0.09"/>
  <rect x="120" y="286" width="960" height="220" rx="12" fill="white" stroke="#0D1B3A" stroke-opacity="0.08"/>
  <rect x="170" y="340" width="860" height="16" rx="8" fill="#0D1B3A" fill-opacity="0.13"/>
  <rect x="220" y="374" width="760" height="14" rx="7" fill="#0D1B3A" fill-opacity="0.08"/>
  <rect x="320" y="404" width="560" height="14" rx="7" fill="#0D1B3A" fill-opacity="0.08"/>
  <circle cx="600" cy="612" r="56" fill="#D9A938" fill-opacity="0.18"/>
  <rect x="120" y="700" width="240" height="10" rx="5" fill="#0D1B3A" fill-opacity="0.2"/>
  <rect x="840" y="700" width="240" height="10" rx="5" fill="#0D1B3A" fill-opacity="0.2"/>
</svg>
