<svg width="1200" height="848" viewBox="0 0 1200 848" fill="none" xmlns="http://www.w3.org/2000/svg">
  <rect width="1200" height="848" rx="20" fill="#FFFFFF"/>
  <rect x="20" y="20" width="1160" height="808" rx="16" stroke="#0D1B3A" stroke-opacity="0.18" stroke-width="2"/>
  <rect x="60" y="60" width="1080" height="728" rx="12" fill="#F8FAFC"/>
  <path d="M60 210C220 120 380 120 540 210C700 300 860 300 1140 170V300H60V210Z" fill="#D9A938" fill-opacity="0.12"/>
  <rect x="120" y="120" width="280" height="22" rx="11" fill="#0D1B3A" fill-opacity="0.12"/>
  <rect x="120" y="335" width="960" height="230" rx="12" fill="white" stroke="#0D1B3A" stroke-opacity="0.08"/>
  <rect x="170" y="392" width="860" height="16" rx="8" fill="#0D1B3A" fill-opacity="0.12"/>
  <rect x="250" y="425" width="700" height="14" rx="7" fill="#0D1B3A" fill-opacity="0.08"/>
  <rect x="330" y="455" width="540" height="14" rx="7" fill="#0D1B3A" fill-opacity="0.08"/>
  <circle cx="980" cy="640" r="42" fill="#0D1B3A" fill-opacity="0.07"/>
  <rect x="120" y="700" width="240" height="10" rx="5" fill="#0D1B3A" fill-opacity="0.2"/>
  <rect x="840" y="700" width="240" height="10" rx="5" fill="#0D1B3A" fill-opacity="0.2"/>
</svg>
